<svg width="110" height="110" viewBox="0 0 110 110" fill="none" xmlns="http://www.w3.org/2000/svg">
<g clip-path="url(#clip0_74_835)">
<rect width="110" height="110" fill="white"/>
<path fill-rule="evenodd" clip-rule="evenodd" d="M55 50.309L79.289 40.9887L55.402 38.3325C54.7184 38.2583 54.2223 37.6411 54.3004 36.9536C54.3746 36.27 54.9918 35.7739 55.6754 35.852L84.3594 39.0434L90.5117 36.6801L54.9997 23.5751L19.4797 36.6801L55 50.309ZM50.1055 96.789L11.9145 86.555C11.0434 86.3206 10.3481 85.7503 9.9262 85.0198C9.50823 84.2932 9.35979 83.4065 9.59417 82.5354L11.1098 76.8752C11.2855 76.2072 11.9731 75.8127 12.6371 75.9924C12.6879 76.008 12.7386 76.0236 12.7894 76.0432L13.8714 76.4104L16.7464 66.4259C16.9574 65.7697 17.6644 65.4142 18.3167 65.6252C26.4065 68.2658 33.4297 71.4025 39.3827 75.0275C45.1718 78.5548 49.9487 82.547 53.7187 87.0115H56.2851C63.9179 77.9763 75.6991 70.8515 91.6331 65.6405L91.7347 65.6053C92.3987 65.4178 93.0902 65.8006 93.2777 66.4647L96.1371 76.4061L97.2191 76.0389C97.2698 76.0194 97.3167 76.0037 97.3714 75.9881C98.0394 75.8084 98.723 76.2069 98.8987 76.8709L100.414 82.5311C100.637 83.3671 100.516 84.2186 100.129 84.9295L100.082 85.0194C99.6643 85.7459 98.9651 86.3124 98.094 86.5467L59.899 96.7807C59.7349 97.2572 59.4654 97.6869 59.1138 98.0346L59.0279 98.1127C58.4419 98.6596 57.6568 98.9994 56.7935 98.9994H53.2154C52.313 98.9994 51.4888 98.6322 50.8951 98.0385C50.5435 97.6947 50.2696 97.2655 50.1055 96.789ZM16.2385 77.211L51.3715 89.066H52.1801C52.1567 89.0386 52.1332 89.0074 52.1098 88.9722C48.4731 84.5777 43.7973 80.6402 38.0828 77.1562C32.6023 73.8164 26.1648 70.8984 18.7708 68.4023L16.2385 77.211ZM49.9295 91.211L14.3865 79.215L14.3631 79.2072C14.3162 79.1955 14.2732 79.1798 14.2263 79.1603L13.1755 78.8087L12.0036 83.1837C11.945 83.3947 11.9802 83.6095 12.0818 83.7814C12.1794 83.9533 12.3474 84.0861 12.5583 84.1447L49.9293 94.1567L49.9295 91.211ZM95.7655 79.164C95.7225 79.1835 95.6757 79.1991 95.6327 79.2109L95.6132 79.2187L60.0702 91.2107V94.156L97.4412 84.144C97.6482 84.0893 97.8162 83.9526 97.9177 83.7768L97.9412 83.7377C98.0232 83.5737 98.0466 83.3744 97.9958 83.183L96.8239 78.808L95.7655 79.164ZM93.7616 77.2109L91.2304 68.4062C76.0824 73.5156 64.9494 80.3982 57.8244 89.0542L57.8127 89.0659H58.6252L93.7616 77.2109ZM53.2106 96.5039H56.7887C56.984 96.5039 57.1637 96.4336 57.3004 96.3125L57.3395 96.2734C57.4801 96.1328 57.57 95.9375 57.57 95.7226V91.5664H52.4294V95.7226C52.4294 95.9375 52.5153 96.1328 52.6598 96.2734C52.8004 96.4179 52.9958 96.5039 53.2106 96.5039ZM85.4016 49.2309C86.0579 49.2309 86.6516 49.4926 87.0774 49.9184L87.0813 49.9223C87.5071 50.3481 87.7688 50.9418 87.7688 51.5981C87.7688 51.9965 87.6751 52.3637 87.511 52.684C87.3352 53.0199 87.0852 53.3129 86.7766 53.5317C86.3782 53.8129 86.1633 54.3168 86.2766 54.8247L87.9485 62.2544H82.8508L84.5149 54.856C84.636 54.3716 84.4602 53.8404 84.0266 53.5357C83.718 53.3169 83.4641 53.0239 83.2884 52.688C83.1243 52.3677 83.0266 51.9966 83.0266 51.6021C83.0266 50.9498 83.2923 50.356 83.718 49.9263C84.1516 49.4966 84.7453 49.2309 85.4016 49.2309ZM81.9563 48.1606C82.554 47.5629 83.3079 47.1215 84.1477 46.895V41.7973L78.0813 44.1254L78.0852 62.7504C78.0852 63.2269 77.8196 63.641 77.425 63.852C70.9289 67.8715 62.96 69.8793 54.999 69.8793C47.0107 69.8793 39.011 67.8559 32.503 63.809C32.1241 63.5707 31.9132 63.1645 31.9132 62.7504L31.9093 44.1254L15.4913 37.8246C15.1671 37.6996 14.8936 37.4418 14.7647 37.0863C14.5265 36.4379 14.8585 35.723 15.5069 35.4847L54.5689 21.0707C54.8385 20.9731 55.1392 20.9652 55.4283 21.0707L94.4673 35.4727C94.8071 35.5899 95.0923 35.8477 95.229 36.211C95.4751 36.8555 95.1509 37.5782 94.5064 37.8243L86.6509 40.8399L86.6548 46.8946C87.4907 47.1172 88.2407 47.5586 88.8384 48.1563L88.8462 48.1641C89.729 49.0469 90.272 50.2618 90.272 51.6016C90.272 52.4024 90.0767 53.1602 89.729 53.8321C89.5025 54.2657 89.2173 54.6641 88.8775 55.0079L90.7095 63.1329C90.7446 63.2501 90.7641 63.3751 90.7641 63.5079C90.7641 64.1993 90.2056 64.7579 89.5141 64.7579H81.2993V64.754C81.2095 64.754 81.1197 64.7423 81.0259 64.7227C80.354 64.5704 79.9321 63.9063 80.0845 63.2344L81.9361 55.0078C81.5963 54.6602 81.3072 54.2657 81.0845 53.832C80.7369 53.1602 80.5416 52.4023 80.5416 51.6015C80.5298 50.2577 81.0774 49.0395 81.9563 48.1606ZM34.4133 45.0825L54.5543 52.8091C54.8512 52.9224 55.1676 52.9146 55.4449 52.8091L75.5859 45.0825V62.0475C69.5937 65.6022 62.3009 67.3795 54.9999 67.3795C47.6952 67.3795 40.4059 65.6022 34.4139 62.0475L34.4133 45.0825Z" fill="black"/>
</g>
<defs>
<clipPath id="clip0_74_835">
<rect width="110" height="110" fill="white"/>
</clipPath>
</defs>
</svg>
