<svg width="110" height="110" viewBox="0 0 110 110" fill="none" xmlns="http://www.w3.org/2000/svg">
<g clip-path="url(#clip0_74_835)">
<path fill-rule="evenodd" clip-rule="evenodd" d="M54.9999 50.309L79.2889 40.9887L55.4019 38.3325C54.7183 38.2583 54.2222 37.6411 54.3003 36.9536C54.3745 36.27 54.9917 35.7739 55.6753 35.852L84.3593 39.0434L90.5116 36.6801L54.9996 23.5751L19.4796 36.6801L54.9999 50.309ZM50.1054 96.789L11.9144 86.555C11.0433 86.3206 10.348 85.7503 9.92606 85.0198C9.50809 84.2932 9.35965 83.4065 9.59403 82.5354L11.1096 76.8752C11.2854 76.2072 11.9729 75.8127 12.6369 75.9924C12.6877 76.008 12.7385 76.0236 12.7893 76.0432L13.8713 76.4104L16.7463 66.426C16.9572 65.7697 17.6642 65.4143 18.3166 65.6252C26.4064 68.2658 33.4296 71.4025 39.3826 75.0275C45.1717 78.5548 49.9486 82.547 53.7186 87.0115H56.285C63.9178 77.9763 75.699 70.8515 91.633 65.6405L91.7345 65.6053C92.3986 65.4178 93.09 65.8006 93.2775 66.4647L96.1369 76.4061L97.2189 76.0389C97.2697 76.0194 97.3166 76.0038 97.3713 75.9881C98.0392 75.8084 98.7229 76.2069 98.8986 76.8709L100.414 82.5311C100.637 83.3671 100.516 84.2186 100.129 84.9295L100.082 85.0194C99.6642 85.7459 98.9649 86.3124 98.0938 86.5467L59.8988 96.7807C59.7348 97.2572 59.4652 97.6869 59.1137 98.0346L59.0277 98.1127C58.4418 98.6596 57.6566 98.9994 56.7933 98.9994H53.2152C52.3129 98.9994 51.4886 98.6322 50.8949 98.0385C50.5434 97.6947 50.2694 97.2656 50.1054 96.789ZM16.2384 77.211L51.3714 89.066H52.18C52.1565 89.0387 52.1331 89.0074 52.1096 88.9722C48.4729 84.5777 43.7971 80.6403 38.0826 77.1562C32.6021 73.8164 26.1646 70.8985 18.7706 68.4024L16.2384 77.211ZM49.9294 91.211L14.3864 79.215L14.3629 79.2072C14.316 79.1955 14.2731 79.1798 14.2262 79.1603L13.1754 78.8088L12.0035 83.1838C11.9449 83.3947 11.9801 83.6095 12.0816 83.7814C12.1793 83.9533 12.3472 84.0861 12.5582 84.1447L49.9292 94.1567L49.9294 91.211ZM95.7654 79.164C95.7224 79.1835 95.6755 79.1992 95.6325 79.2109L95.613 79.2187L60.07 91.2107V94.156L97.441 84.144C97.648 84.0893 97.816 83.9526 97.9176 83.7768L97.941 83.7377C98.023 83.5737 98.0465 83.3745 97.9957 83.183L96.8238 78.808L95.7654 79.164ZM93.7615 77.2109L91.2303 68.4062C76.0823 73.5156 64.9493 80.3982 57.8243 89.0542L57.8125 89.0659H58.625L93.7615 77.2109ZM53.2105 96.5039H56.7886C56.9839 96.5039 57.1636 96.4336 57.3003 96.3125L57.3393 96.2734C57.48 96.1328 57.5698 95.9375 57.5698 95.7226V91.5664H52.4292V95.7226C52.4292 95.9375 52.5152 96.1328 52.6597 96.2734C52.8003 96.418 52.9956 96.5039 53.2105 96.5039ZM85.4015 49.2309C86.0577 49.2309 86.6515 49.4926 87.0773 49.9184L87.0812 49.9223C87.5069 50.3481 87.7687 50.9418 87.7687 51.5981C87.7687 51.9965 87.6749 52.3637 87.5108 52.684C87.3351 53.0199 87.0851 53.3129 86.7765 53.5317C86.378 53.8129 86.1632 54.3168 86.2765 54.8247L87.9484 62.2544H82.8507L84.5148 54.856C84.6359 54.3716 84.4601 53.8404 84.0265 53.5357C83.7179 53.3169 83.464 53.0239 83.2882 52.688C83.1241 52.3677 83.0265 51.9966 83.0265 51.6021C83.0265 50.9498 83.2921 50.356 83.7179 49.9263C84.1515 49.4966 84.7452 49.2309 85.4015 49.2309ZM81.9562 48.1606C82.5538 47.5629 83.3078 47.1215 84.1476 46.895V41.7973L78.0812 44.1254L78.0851 62.7504C78.0851 63.227 77.8194 63.641 77.4249 63.852C70.9288 67.8715 62.9599 69.8793 54.9989 69.8793C47.0106 69.8793 39.0109 67.8559 32.5029 63.809C32.124 63.5707 31.9131 63.1645 31.9131 62.7504L31.9092 44.1254L15.4912 37.8246C15.1669 37.6996 14.8935 37.4418 14.7646 37.0863C14.5263 36.4379 14.8583 35.723 15.5068 35.4847L54.5688 21.0707C54.8383 20.9731 55.1391 20.9652 55.4282 21.0707L94.4672 35.4727C94.807 35.5899 95.0922 35.8477 95.2289 36.211C95.475 36.8555 95.1508 37.5782 94.5062 37.8243L86.6507 40.8399L86.6546 46.8946C87.4906 47.1173 88.2405 47.5587 88.8382 48.1563L88.846 48.1641C89.7289 49.0469 90.2718 50.2618 90.2718 51.6016C90.2718 52.4024 90.0765 53.1602 89.7289 53.8321C89.5023 54.2657 89.2172 54.6641 88.8773 55.0079L90.7093 63.1329C90.7445 63.2501 90.764 63.3751 90.764 63.5079C90.764 64.1993 90.2054 64.7579 89.514 64.7579H81.2992V64.754C81.2094 64.754 81.1195 64.7423 81.0258 64.7228C80.3539 64.5704 79.932 63.9063 80.0844 63.2345L81.936 55.0079C81.5961 54.6602 81.307 54.2657 81.0844 53.8321C80.7367 53.1602 80.5414 52.4024 80.5414 51.6016C80.5297 50.2578 81.0772 49.0395 81.9562 48.1606ZM34.4132 45.0825L54.5542 52.8091C54.851 52.9224 55.1674 52.9146 55.4448 52.8091L75.5858 45.0825V62.0475C69.5936 65.6022 62.3008 67.3795 54.9998 67.3795C47.6951 67.3795 40.4058 65.6022 34.4138 62.0475L34.4132 45.0825Z" fill="black"/>
</g>
<defs>
<clipPath id="clip0_74_835">
<rect width="110" height="110" fill="white"/>
</clipPath>
</defs>
</svg>
